<svg width="144" height="24" viewBox="0 0 144 24" fill="none" xmlns="http://www.w3.org/2000/svg">
<path d="M100.982 0.738024C100.893 0.815948 100.704 1.14991 100.571 1.48386C100.437 1.81782 100.203 2.41894 100.036 2.81969C99.168 4.95702 98.7784 6.01455 98.7672 6.19267C98.7672 6.30398 98.6893 6.4153 98.6002 6.4487C98.5112 6.49323 98.4333 6.62681 98.4333 6.76039C98.4333 6.89398 98.3887 7.04982 98.3331 7.11661C98.2774 7.17227 98.1327 7.4951 98.0102 7.82906C97.6986 8.69735 97.1308 10.1 96.7635 10.946C96.5853 11.3467 96.4072 11.8143 96.3627 12.0035C96.3182 12.1816 96.2069 12.4488 96.1178 12.5824C96.0287 12.7271 95.9954 12.8384 96.0399 12.8384C96.0844 12.8384 96.0621 12.9052 95.9954 12.9831C95.9286 13.0722 95.9063 13.1724 95.9508 13.2058C95.9842 13.2503 95.962 13.2837 95.8952 13.2837C95.8172 13.2837 95.7616 13.3394 95.7616 13.4061C95.7616 13.4618 95.6725 13.729 95.5612 13.985C95.4388 14.241 95.2384 14.7531 95.1048 15.1205C94.9601 15.4878 94.8042 15.8886 94.7486 16.011C94.704 16.1335 94.4814 16.6789 94.2699 17.2355C94.0695 17.781 93.7801 18.4823 93.6354 18.794C93.5018 19.0946 93.3793 19.3729 93.3793 19.4063C93.3682 19.4396 93.3348 19.5064 93.2903 19.5732C93.2569 19.6289 93.0899 20.0296 92.9229 20.4638C92.7448 20.8868 92.5778 21.2653 92.5333 21.2987C92.4999 21.3321 92.3552 21.5324 92.2327 21.744C92.0991 21.9555 91.7207 22.3006 91.3978 22.4898C90.8969 22.7904 90.6854 22.8571 90.1399 22.8571C89.6056 22.8683 89.5165 22.8905 89.6835 22.9796C89.8059 23.0575 90.151 23.0798 90.5741 23.0353C90.9414 22.9907 92.4665 22.9573 93.9582 22.9462C96.4852 22.9351 97.3423 22.8905 95.9954 22.846C95.6057 22.8238 95.2829 22.7458 95.0603 22.5788C94.7486 22.3785 94.704 22.2783 94.6929 21.7996C94.6818 21.3209 95.0714 19.9183 95.4276 19.128C95.4833 19.0055 95.5723 18.7272 95.628 18.5157L95.7171 18.1261H100.326H104.934L105.112 18.6827C105.213 18.9832 105.346 19.3617 105.424 19.5176C105.669 20.063 106.326 21.7996 106.393 22.1002C106.493 22.4787 106.281 22.8571 105.97 22.8794C105.19 22.9351 110.022 23.013 111.458 22.9573C112.404 22.9239 112.894 22.8905 112.538 22.8794C112.181 22.8683 111.736 22.7904 111.536 22.7013C111.079 22.5121 110.122 21.666 110.122 21.4545C110.122 21.3655 110.088 21.2987 110.033 21.2987C109.91 21.2987 108.753 18.9164 108.619 18.371C108.552 18.1038 108.575 18.0816 109.087 18.0148C109.588 17.9368 110.678 17.6251 111.179 17.4025C111.302 17.3468 111.803 17.2689 112.304 17.2355C113.996 17.1019 113.461 17.0018 110.823 16.9684C109.287 16.9572 108.129 16.9016 108.051 16.8348C107.907 16.7123 107.639 16.0889 106.771 13.8403C106.459 13.0165 106.137 12.2373 106.07 12.1148C106.014 11.9924 105.947 11.8699 105.947 11.8365C105.925 11.7809 105.836 11.5582 105.458 10.69C105.335 10.4005 105.224 10.1222 105.213 10.0777C105.202 10.0332 105.046 9.67696 104.868 9.29847C104.701 8.90885 104.556 8.53037 104.556 8.45244C104.556 8.2966 103.209 4.90136 102.83 4.08873C102.686 3.77704 102.474 3.2761 102.374 2.97554C102.107 2.17404 101.361 0.593309 101.25 0.593309C101.205 0.593309 101.083 0.660101 100.982 0.738024ZM100.526 6.4153C100.593 6.49323 100.726 6.80492 100.827 7.10548C101.005 7.66208 101.06 7.81793 101.328 8.44131C101.406 8.61942 101.495 8.86433 101.517 8.97565C101.539 9.0981 101.628 9.28734 101.717 9.42092C101.806 9.5545 101.884 9.79941 101.884 9.96639C101.884 10.1445 101.929 10.2781 101.984 10.2781C102.073 10.2781 102.586 11.6918 102.608 12.0035C102.619 12.0592 102.686 12.2262 102.752 12.3709C102.83 12.5045 102.864 12.6714 102.83 12.7271C102.797 12.7939 102.808 12.8384 102.864 12.8384C102.964 12.8384 103.131 13.2392 103.164 13.562C103.176 13.6177 103.265 13.8626 103.365 14.0852C103.465 14.319 103.632 14.7976 103.743 15.1427C103.855 15.4989 103.977 15.7995 104.022 15.8218C104.077 15.844 104.111 15.9776 104.111 16.1112C104.111 16.2448 104.166 16.4118 104.233 16.4786C104.333 16.5787 104.322 16.6455 104.211 16.7569C104.088 16.8682 103.276 16.9016 100.326 16.8904C98.2774 16.8793 96.5631 16.8682 96.5186 16.857C96.4072 16.8348 96.552 16.0667 96.7746 15.5435C96.8859 15.2986 96.9416 15.0537 96.897 15.0091C96.8525 14.9757 96.9082 14.8867 97.0195 14.831C97.1197 14.7642 97.2087 14.6195 97.2087 14.5082C97.2087 14.3858 97.2867 14.1075 97.3869 13.8737C97.6095 13.3728 97.6763 13.1835 97.9323 12.4488C98.0436 12.1371 98.1772 11.8477 98.2218 11.7809C98.2774 11.7252 98.3219 11.625 98.3219 11.5471C98.3219 11.4803 98.411 11.2243 98.5112 10.9905C98.6114 10.7456 98.7116 10.4785 98.7227 10.3783C98.7227 10.2892 98.9453 9.66582 99.2014 9.00904C99.4463 8.35226 99.6578 7.71774 99.6578 7.60642C99.6578 7.48397 99.758 7.28359 99.8804 7.16114C100.014 7.02756 100.081 6.88284 100.047 6.82718C99.9806 6.71586 100.214 6.27059 100.337 6.27059C100.381 6.27059 100.459 6.33738 100.526 6.4153Z" fill="#D7291E"/>
<path d="M41.7155 1.13892C40.2016 1.51741 38.5429 2.11853 38.5429 2.28551C38.5429 2.33004 38.465 2.37457 38.3759 2.37457C38.1867 2.37457 37.7303 2.67513 36.695 3.51002C34.669 5.12415 33.3331 7.51751 32.9101 10.3005C32.5873 12.371 32.7209 14.0297 33.3777 16.1225C33.745 17.2802 33.8007 17.3915 34.5799 18.5715C35.3369 19.7181 36.1161 20.5753 36.7952 21.0317C37.0512 21.1986 37.3629 21.4324 37.4854 21.5326C37.7748 21.7775 39.1106 22.4454 39.8788 22.7348C40.2127 22.8573 41.0365 23.0688 41.7044 23.2024C42.7619 23.4139 43.1516 23.4362 44.6544 23.3805C46.2017 23.3248 47.6266 23.1245 48.2834 22.8684C48.4059 22.8128 48.7844 22.6903 49.1183 22.5679C50.0312 22.2673 51.0998 21.6662 51.8123 21.0651C52.1574 20.7645 52.4802 20.5196 52.5247 20.5196C52.636 20.5196 53.1926 19.9185 53.3374 19.6402C53.4153 19.5066 53.5377 19.4064 53.6157 19.4064C53.7047 19.4064 53.7938 19.3173 53.8383 19.206C53.8717 19.1058 54.1055 18.7162 54.3504 18.3489C54.7845 17.7032 55.0294 17.2245 55.4858 16.1781C55.5972 15.8998 55.7419 15.577 55.7975 15.4546C55.8532 15.3321 55.9311 15.0316 55.9645 14.7867C56.0536 14.2635 56.0647 14.1855 56.1872 13.9072C56.2428 13.7848 56.2762 12.961 56.2873 12.0705C56.2873 9.89974 56.1538 8.61957 55.8866 8.30788C55.8198 8.22996 55.8087 8.16317 55.8532 8.16317C55.8977 8.16317 55.8755 8.09637 55.8087 8.00732C55.7419 7.91826 55.6862 7.80694 55.7085 7.76242C55.7307 7.66223 54.8179 5.74754 54.5508 5.32453C54.4728 5.20207 54.3392 5.05736 54.2725 5.01283C54.1945 4.96831 54.1277 4.85699 54.1277 4.79019C54.1277 4.71227 53.8049 4.34492 53.4153 3.9887C52.5025 3.14267 52.38 3.04248 52.2464 3.04248C52.1908 3.04248 52.1128 2.96456 52.0794 2.86437C52.046 2.77532 51.9681 2.71966 51.9125 2.75305C51.8679 2.78645 51.7344 2.71966 51.623 2.59721C51.5117 2.47475 51.367 2.37457 51.3113 2.37457C51.2445 2.37457 50.8327 2.19646 50.3874 1.97382C48.8623 1.22798 47.7046 1.01647 44.8325 0.971947C42.8955 0.949682 42.3612 0.971947 41.7155 1.13892ZM45.1665 2.07401C46.0682 2.19646 48.3391 3.13154 48.3391 3.38757C48.3391 3.44323 48.4059 3.48776 48.4949 3.48776C48.9068 3.48776 50.6211 5.56943 51.1555 6.71602C51.4783 7.42846 51.8123 8.18543 51.8457 8.29675C51.8679 8.35241 51.8902 8.39694 51.9013 8.40807C51.9125 8.43033 51.9459 8.64184 51.9681 8.88674C51.9904 9.13164 52.0572 9.34315 52.124 9.36541C52.1796 9.38768 52.213 9.44334 52.1908 9.47673C52.1685 9.52126 52.213 9.89974 52.3021 10.3339C52.3911 10.8014 52.4468 11.8144 52.4468 12.8942C52.4357 15.4768 52.1017 17.0019 51.0887 19.0724C50.8549 19.5622 49.2074 21.2988 48.9847 21.2988C48.9291 21.2988 48.7398 21.399 48.5729 21.5215C47.5821 22.2116 45.2889 22.4009 43.3297 21.9445C42.3167 21.7107 41.0476 21.0317 40.1571 20.2413C39.9789 20.0743 39.7229 19.8628 39.6005 19.7515C39.478 19.6513 39.1997 19.3285 38.9882 19.039C38.7767 18.7385 38.5206 18.4157 38.4316 18.3043C38.2423 18.104 37.875 17.3693 37.875 17.2023C37.875 17.1466 37.7859 16.9796 37.6746 16.8349C37.5633 16.6902 37.3852 16.2672 37.2739 15.8998C37.1625 15.5325 37.0178 15.1095 36.9622 14.9536C36.7507 14.4082 36.5725 12.7606 36.5503 11.2356C36.5169 8.909 36.7952 7.36167 37.541 5.7698C37.6857 5.45811 37.8082 5.19094 37.8082 5.15755C37.8193 5.12415 37.964 4.90151 38.1533 4.65661C39.0105 3.49889 40.3908 2.54155 41.582 2.25212C41.9048 2.18533 42.3167 2.08514 42.4948 2.04061C42.8065 1.96269 44.4429 1.98495 45.1665 2.07401Z" fill="#D7291E"/>
<path d="M64.6805 1.16115C64.636 1.75114 64.6137 1.88472 64.558 2.04057C64.2909 2.79754 64.0014 4.82355 64.1684 4.82355C64.2129 4.82355 64.302 4.63431 64.3799 4.3894C64.5358 3.85507 65.1146 3.22055 65.6378 2.99791C66.0497 2.83093 66.9514 2.75301 70.035 2.65282C71.0369 2.61943 71.894 2.56377 71.9386 2.54151C71.972 2.51924 72.0721 2.54151 72.1612 2.59716C72.3059 2.68622 72.3282 3.81054 72.3059 10.7457C72.2837 19.5177 72.2391 20.9092 71.9608 21.8999C71.7382 22.668 71.471 22.8461 70.5805 22.8684C70.1129 22.8795 70.0573 22.8907 70.3244 22.9574C70.5137 22.9908 72.484 23.002 74.7216 22.9686C76.9591 22.9352 78.5065 22.8907 78.1725 22.8795C76.7587 22.8016 76.5917 22.7348 76.2467 22.1671C75.9461 21.6884 75.9127 21.5326 75.8348 20.1077C75.7568 18.9833 75.6567 3.94413 75.7123 2.96452C75.7457 2.54151 76.1353 2.48585 78.0055 2.64169C78.4397 2.67509 79.3414 2.73075 80.0204 2.76414C80.7217 2.79754 81.4898 2.89773 81.8015 3.00904C82.4249 3.22055 83.0038 3.77715 83.1374 4.30035C83.3489 5.1909 83.3823 5.13524 83.4045 3.82168C83.4268 3.05357 83.4379 2.12962 83.4491 1.76227C83.4602 1.37265 83.4157 1.10549 83.3489 1.11662C81.1893 1.47284 67.1407 1.47284 65.649 1.10549C64.7361 0.882849 64.7028 0.882849 64.6805 1.16115Z" fill="#D7291E"/>
<path d="M132.887 1.06096C132.04 1.2168 130.571 1.69548 130.17 1.94038L129.814 2.15189L129.87 3.52111C129.937 5.16863 130.037 6.05919 130.17 5.98127C130.226 5.94787 130.271 5.83655 130.271 5.73636C130.271 5.32448 130.771 4.02205 131.005 3.78828C131.15 3.65469 131.272 3.48771 131.272 3.42092C131.272 3.25394 131.662 2.8198 131.818 2.8198C131.885 2.8198 131.94 2.77527 131.94 2.73075C131.94 2.67509 132.297 2.47471 132.742 2.27434C133.443 1.95151 133.655 1.90698 134.567 1.89585C135.269 1.88472 135.647 1.92925 135.77 2.02943C135.87 2.11849 135.948 2.15189 135.948 2.10736C135.948 2.02943 137.15 2.64169 137.395 2.84206C137.696 3.0981 138.286 4.02205 138.464 4.51185C139.043 6.07032 139.098 8.11859 138.631 10.0889C138.286 11.5027 138.107 12.0704 137.963 12.1706C137.918 12.204 137.684 12.6048 137.451 13.0612C137.206 13.5176 136.927 14.0185 136.816 14.1744C135.959 15.3655 134.645 16.8794 133.532 17.9703C132.374 19.1169 131.729 19.6958 129.558 21.5548C128.389 22.5678 128.311 22.7237 128.868 22.8684C129.391 23.0131 141.236 22.9908 141.77 22.8461C142.36 22.6903 142.627 22.4565 142.627 22.078C142.627 21.9222 142.683 21.7329 142.738 21.6773C142.861 21.5548 143.406 18.5715 143.406 18.0817C143.395 17.8034 143.384 17.8034 143.195 18.1818C143.072 18.3934 143.006 18.6049 143.028 18.6383C143.05 18.6828 142.994 18.7384 142.905 18.783C142.816 18.8164 142.738 18.9388 142.738 19.0613C142.738 19.4286 141.369 20.4082 140.857 20.4082C140.801 20.4082 140.735 20.4528 140.712 20.5196C140.657 20.6865 137.985 20.8535 135.157 20.8535H132.497V20.5196C132.497 20.3303 132.553 20.1856 132.642 20.1856C132.708 20.1856 132.942 20.0409 133.143 19.8739C133.343 19.7069 133.833 19.295 134.245 18.9611C135.67 17.7811 137.896 15.7551 138.363 15.2208C138.62 14.9202 139.02 14.4638 139.265 14.2078C139.844 13.5844 141.091 11.7142 141.558 10.768C141.903 10.0667 142.304 8.90896 142.338 8.49708C142.349 8.39689 142.393 8.27444 142.427 8.20765C142.493 8.10746 142.471 5.62504 142.404 5.49146C142.393 5.45807 142.382 5.39127 142.393 5.33561C142.404 5.29109 142.36 5.17977 142.304 5.11298C142.237 5.03505 142.171 4.87921 142.148 4.75675C142.104 4.46732 141.48 3.35413 141.247 3.16489C141.146 3.08697 141.069 2.97565 141.069 2.91999C141.069 2.7864 140.646 2.37452 140.512 2.37452C140.456 2.37452 140.401 2.33 140.401 2.27434C140.401 2.21868 140.312 2.15189 140.211 2.11849C140.1 2.08509 139.833 1.95151 139.621 1.82906C138.363 1.10548 137.44 0.927374 135.247 0.938505C134.256 0.949638 133.198 1.0053 132.887 1.06096Z" fill="#D7291E"/>
<path d="M0.638078 1.33938C1.74015 1.4507 2.26335 1.62881 2.58618 2.00729C2.76429 2.20767 2.94241 2.48596 2.9758 2.63068C3.0092 2.76426 3.02033 7.06118 3.0092 12.1707C2.9758 20.4195 2.95354 21.5104 2.78656 21.9112C2.47486 22.6904 2.28562 22.8129 1.41732 22.8462C0.994303 22.8574 0.615814 22.8908 0.59355 22.9242C0.571286 22.9464 1.84034 22.9687 3.43221 22.9687C5.01296 22.9687 6.63824 23.0244 7.03899 23.0911C8.0854 23.2693 12.7052 23.2693 13.7182 23.0911C14.6422 22.9353 15.7108 22.6904 16.2229 22.5012C17.0578 22.2117 18.5495 21.5104 18.594 21.388C18.6163 21.3434 18.6942 21.2989 18.761 21.2878C18.8389 21.2878 19.1172 21.1097 19.3955 20.8982C19.6738 20.6978 20.0189 20.4306 20.1748 20.3304C20.6089 20.0299 21.377 19.1616 21.5217 18.8165C21.5885 18.6495 21.6999 18.5159 21.7555 18.5159C21.8112 18.5159 21.9114 18.3601 21.967 18.182C22.0338 17.9927 22.134 17.848 22.1897 17.848C22.2342 17.848 22.2565 17.7701 22.2231 17.681C22.1785 17.5808 22.2231 17.5141 22.3344 17.5141C22.4346 17.5141 22.5236 17.4361 22.5236 17.3471C22.5459 17.1022 22.557 17.0799 22.8798 16.3897C23.0468 16.0558 23.3029 15.2765 23.4587 14.6643C23.7147 13.7181 23.7481 13.3173 23.7593 11.8368C23.7593 9.69945 23.5812 8.90908 22.6127 6.74949C22.3678 6.21516 21.4216 4.91272 20.954 4.47858C20.3863 3.94425 19.6516 3.37652 19.5402 3.37652C19.4846 3.37652 19.3399 3.27633 19.2285 3.15388C19.1172 3.03143 18.9725 2.93124 18.8946 2.93124C18.8167 2.93124 18.6497 2.83105 18.505 2.7086C18.3602 2.58615 18.1153 2.45257 17.9595 2.41917C17.8036 2.38578 17.3472 2.24106 16.9465 2.09635C15.0763 1.42843 13.9074 1.33938 6.59371 1.31711C3.13165 1.31711 0.459966 1.31711 0.638078 1.33938ZM11.425 2.48596C11.5475 2.53049 11.9593 2.63068 12.3267 2.7086C12.9724 2.84219 13.5178 3.00916 14.2191 3.32086C15.1988 3.755 15.6106 3.96651 15.6106 4.04443C15.6106 4.08896 15.7331 4.16689 15.8889 4.20028C16.0448 4.24481 16.1672 4.32273 16.1672 4.37839C16.1672 4.44518 16.234 4.48971 16.3231 4.48971C16.4121 4.48971 16.5012 4.52311 16.5235 4.56763C16.5457 4.62329 16.8574 4.93499 17.2248 5.26894C17.6033 5.6029 17.9038 5.92573 17.915 5.98139C17.9261 6.03705 17.9706 6.11497 18.0263 6.14837C18.2823 6.33761 19.2397 8.12985 19.607 9.10946C19.8965 9.88869 20.0857 11.4917 20.0746 13.0613C20.0634 15.232 19.8074 16.5678 19.1618 17.9037C18.5384 19.2061 17.9706 19.8518 16.7572 20.6533C16.3676 20.9093 16.0559 21.1542 16.0559 21.2099C16.0559 21.2544 15.9557 21.2989 15.8333 21.2989C15.7108 21.2989 15.4214 21.3991 15.1876 21.5215C14.3416 21.9668 12.1041 22.234 10.156 22.1227C8.26351 22.0114 7.26163 21.5661 6.80522 20.631C6.56031 20.1301 6.56031 20.0967 6.50465 11.9704C6.48239 7.4842 6.49352 3.5435 6.53805 3.20954C6.61597 2.57502 6.74956 2.45257 7.53993 2.33012C8.04087 2.25219 11.1467 2.37465 11.425 2.48596Z" fill="#D7291E"/>
</svg>
