<svg width="24" height="24" viewBox="0 0 24 24" fill="none" xmlns="http://www.w3.org/2000/svg">
<path d="M21.2201 8C20.5311 5.816 19.4281 4.635 18.0901 4.16C17.7101 4.025 17.3021 4 16.8971 4H16.2851C15.4074 4.00015 14.5513 4.27268 13.8351 4.78L13.3331 5.134C12.9432 5.40949 12.4775 5.55741 12.0001 5.55741C11.5227 5.55741 11.057 5.40949 10.6671 5.134L10.1651 4.779C9.44871 4.27204 8.59269 3.99986 7.71508 4H7.10308C6.69808 4 6.29008 4.025 5.90908 4.16C3.52608 5.006 1.88708 8.095 2.00608 15.103C2.03008 16.515 2.36008 18.075 3.63408 18.684C4.06867 18.8929 4.54487 19.001 5.02708 19C5.56908 19.0089 6.10154 18.8568 6.55708 18.563C7.47208 17.964 8.14108 16.963 9.11108 16.461C9.69497 16.1579 10.3432 15.9998 11.0011 16H13.0001C13.6581 16 14.3061 16.158 14.8901 16.46C15.8601 16.964 16.5301 17.964 17.4431 18.563C17.8331 18.819 18.3381 19 18.9741 19C19.4563 19.001 19.9325 18.8929 20.3671 18.684C21.6411 18.075 21.9711 16.514 21.9951 15.103C22.0153 14.068 21.9896 13.0327 21.9181 12M7.50008 9V12M6.00008 10.5H9.00008" stroke="white" stroke-width="1.5" stroke-linecap="round"/>
<path d="M19 10.25C19 10.4489 18.921 10.6397 18.7803 10.7803C18.6397 10.921 18.4489 11 18.25 11C18.0511 11 17.8603 10.921 17.7197 10.7803C17.579 10.6397 17.5 10.4489 17.5 10.25C17.5 10.0511 17.579 9.86032 17.7197 9.71967C17.8603 9.57902 18.0511 9.5 18.25 9.5C18.4489 9.5 18.6397 9.57902 18.7803 9.71967C18.921 9.86032 19 10.0511 19 10.25ZM16 10.25C16 10.4489 15.921 10.6397 15.7803 10.7803C15.6397 10.921 15.4489 11 15.25 11C15.0511 11 14.8603 10.921 14.7197 10.7803C14.579 10.6397 14.5 10.4489 14.5 10.25C14.5 10.0511 14.579 9.86032 14.7197 9.71967C14.8603 9.57902 15.0511 9.5 15.25 9.5C15.4489 9.5 15.6397 9.57902 15.7803 9.71967C15.921 9.86032 16 10.0511 16 10.25ZM16.75 8C16.9489 8 17.1397 8.07902 17.2803 8.21967C17.421 8.36032 17.5 8.55109 17.5 8.75C17.5 8.94891 17.421 9.13968 17.2803 9.28033C17.1397 9.42098 16.9489 9.5 16.75 9.5C16.5511 9.5 16.3603 9.42098 16.2197 9.28033C16.079 9.13968 16 8.94891 16 8.75C16 8.55109 16.079 8.36032 16.2197 8.21967C16.3603 8.07902 16.5511 8 16.75 8ZM16.75 11C16.8485 11 16.946 11.0194 17.037 11.0571C17.128 11.0948 17.2107 11.15 17.2803 11.2197C17.35 11.2893 17.4052 11.372 17.4429 11.463C17.4806 11.554 17.5 11.6515 17.5 11.75C17.5 11.8485 17.4806 11.946 17.4429 12.037C17.4052 12.128 17.35 12.2107 17.2803 12.2803C17.2107 12.35 17.128 12.4052 17.037 12.4429C16.946 12.4806 16.8485 12.5 16.75 12.5C16.5511 12.5 16.3603 12.421 16.2197 12.2803C16.079 12.1397 16 11.9489 16 11.75C16 11.5511 16.079 11.3603 16.2197 11.2197C16.3603 11.079 16.5511 11 16.75 11Z" fill="white"/>
</svg>
