<svg width="144" height="22" viewBox="0 0 144 22" fill="none" xmlns="http://www.w3.org/2000/svg">
<path d="M55.7265 0.817104C55.3794 0.841061 55.0777 0.875668 54.7386 0.936892C54.6292 0.955526 54.485 0.982145 54.4183 0.990131C53.9644 1.062 52.859 1.40273 52.3357 1.63433C50.5042 2.44622 48.9903 3.71598 47.8956 5.35575C47.2762 6.28744 46.7502 7.4587 46.526 8.4037C46.4913 8.55809 46.4512 8.7258 46.4352 8.77637C46.3845 8.96271 46.3151 9.38596 46.2456 9.90771C46.2323 10.0089 46.2163 10.3869 46.2056 10.7462C46.1682 12.2769 46.4352 13.6637 47.0306 15.0453C47.359 15.8093 48.0131 16.8821 48.4804 17.4278C49.5563 18.6815 50.5549 19.4748 51.9032 20.143C52.2583 20.3186 52.9338 20.5982 53.0966 20.6381C53.142 20.6487 53.1901 20.6647 53.2034 20.6753C53.2275 20.6913 53.3636 20.7312 53.8042 20.851C54.0845 20.9256 54.1379 20.9389 54.3649 20.9815C54.8321 21.072 55.059 21.1039 55.5129 21.1412C56.4821 21.2237 56.386 21.2237 57.502 21.1252C57.8678 21.0933 58.578 20.9682 58.9037 20.8803C58.9838 20.8564 59.128 20.8191 59.2241 20.7978C59.3843 20.7579 59.4778 20.7286 59.6113 20.6753C59.6406 20.6647 59.7421 20.6274 59.8382 20.5955C60.3482 20.4225 61.1304 20.0604 61.555 19.8022C61.6537 19.741 61.7392 19.6904 61.7445 19.6904C61.7766 19.6904 62.5188 19.1793 62.6817 19.0489C63.1169 18.6948 63.3064 18.5245 63.6562 18.1758C64.2356 17.5955 64.6574 17.0577 65.2154 16.1793C65.3729 15.9344 65.7841 15.0985 65.8989 14.7924C65.9283 14.7126 65.9657 14.622 65.979 14.5928C66.1125 14.2999 66.3448 13.4455 66.4623 12.8279C66.6171 11.9973 66.6598 10.7941 66.5664 9.84116C66.5157 9.33805 66.254 8.11354 66.1392 7.858C66.1259 7.82871 66.0858 7.71425 66.0511 7.60511C65.704 6.55896 64.9751 5.28654 64.2115 4.40277C63.7416 3.85973 63.3198 3.45245 62.7751 3.01322C62.7084 2.95998 62.6309 2.8961 62.6016 2.87214C62.4948 2.77631 61.6084 2.20132 61.36 2.06823C60.2707 1.46928 59.1787 1.1046 57.8892 0.90761C57.2671 0.811779 56.362 0.774511 55.7265 0.817104ZM57.3819 4.30161C57.737 4.35751 58.2336 4.47997 58.4765 4.57047C58.5566 4.60242 58.6768 4.64501 58.7435 4.66896C59.5045 4.93516 60.5164 5.62195 61.1571 6.30873C62.2011 7.42942 62.8152 8.78968 62.978 10.3469C63.0021 10.5945 62.994 11.4942 62.9647 11.7445C62.8445 12.7347 62.5962 13.512 62.1343 14.3399C61.8326 14.8829 61.5523 15.2636 61.1224 15.7055C60.9969 15.8332 60.8901 15.945 60.8821 15.9583C60.8448 16.0063 60.4496 16.339 60.2654 16.4748C59.9557 16.701 59.7207 16.8474 59.3576 17.0338C58.4151 17.5183 57.47 17.7472 56.41 17.7472C55.4221 17.7472 54.5331 17.5475 53.6573 17.1323C53.3903 17.0045 52.9979 16.7915 52.9765 16.7649C52.9685 16.7543 52.9151 16.717 52.8564 16.6824C52.7976 16.6478 52.7389 16.6079 52.7229 16.5972C52.7095 16.5839 52.6134 16.512 52.5093 16.4375C52.1782 16.1899 51.8605 15.8945 51.5374 15.5351C51.2384 15.1997 51.2277 15.1864 50.9741 14.8084C50.675 14.3638 50.408 13.8501 50.2665 13.4481C50.2425 13.3736 50.2105 13.2911 50.1998 13.2618C50.1437 13.118 50.0903 12.9477 50.0396 12.7294C50.0076 12.5963 49.9702 12.4605 49.9595 12.4233C49.8954 12.2422 49.826 11.5049 49.826 10.9964C49.826 9.85447 50.0716 8.81364 50.5656 7.86066C50.6644 7.66633 50.675 7.6477 50.8646 7.33359C51.4466 6.37262 52.4425 5.46223 53.4998 4.9325C54.2367 4.56248 54.8721 4.37082 55.7265 4.26435C56.1404 4.21377 56.9333 4.22974 57.3819 4.30161Z" fill="#FF4350"/>
<path d="M0.894963 1.29889C0.774816 1.32285 0.700059 1.38141 0.64399 1.49322C0.593262 1.59703 0.593262 1.77805 0.593262 10.9911V20.3852L0.64666 20.4916C0.678699 20.5502 0.740107 20.6221 0.788166 20.6487C0.870934 20.6993 0.932342 20.7019 2.42216 20.7019C3.96804 20.7019 3.97071 20.7019 4.14693 20.6407C4.34984 20.5688 4.48868 20.465 4.63819 20.2734C4.80373 20.0631 5.42582 19.2831 5.47388 19.2245C5.50058 19.1953 5.56732 19.1127 5.62606 19.0382C5.6848 18.9663 5.75422 18.8812 5.77825 18.8519C5.80228 18.8226 5.99451 18.583 6.20277 18.3195C6.97971 17.3452 7.7353 16.4029 7.762 16.3736C7.77535 16.355 7.83676 16.2804 7.8955 16.2032C7.95423 16.126 8.04501 16.0116 8.09574 15.9503C8.14647 15.8864 8.21856 15.7959 8.25593 15.748C8.29331 15.7001 8.36006 15.6176 8.40278 15.5643C8.44817 15.5084 8.52026 15.4206 8.56298 15.3647C8.60836 15.3115 8.70982 15.1837 8.78992 15.0852C8.87002 14.9867 8.96613 14.8669 9.00351 14.819C9.04089 14.7711 9.11298 14.6806 9.16371 14.6194C9.21444 14.5581 9.28919 14.465 9.32924 14.417C9.36929 14.3665 9.52415 14.1695 9.67633 13.9805C10.472 12.9849 11.0674 12.2449 11.1021 12.1996C11.1742 12.1144 11.7615 11.3824 11.9137 11.1854C11.9938 11.0843 12.0793 10.9804 12.1006 10.9565C12.122 10.9325 12.1887 10.85 12.2475 10.7728C12.3062 10.6956 12.3676 10.6211 12.381 10.6025C12.397 10.5865 12.4691 10.4986 12.5412 10.4055C12.6987 10.2058 12.9416 9.90502 13.0031 9.82782C13.0298 9.79854 13.1152 9.6894 13.1953 9.58824C13.2754 9.48709 13.3608 9.37795 13.3875 9.34867C13.4756 9.24219 13.6118 9.07448 13.6892 8.97599C13.8067 8.82426 15.9079 6.19957 16.0147 6.06913C16.0655 6.00524 16.2817 5.73638 16.4953 5.47019C16.7089 5.20133 16.9198 4.94046 16.9599 4.88988C17.323 4.43468 17.8596 3.76919 17.9157 3.69466C18.0252 3.5589 18.4684 3.00521 18.6019 2.84017C19.1252 2.19065 19.6031 1.5784 19.6164 1.53847C19.6378 1.47192 19.5897 1.35746 19.5257 1.32285C19.4589 1.28825 15.5555 1.28558 15.4033 1.32019C15.2431 1.35746 15.0188 1.50919 14.896 1.66358C14.7732 1.82064 13.6892 3.17291 13.5744 3.31666C13.4276 3.49767 13.3395 3.60682 13.262 3.70531C13.2193 3.76387 13.1419 3.85704 13.0938 3.9156C12.9924 4.04071 12.9897 4.04338 12.7948 4.29094C12.7147 4.39475 12.6426 4.4826 12.6346 4.49059C12.6266 4.49857 12.5545 4.58642 12.4744 4.69023C12.3943 4.79139 12.3089 4.90053 12.2822 4.92981C12.2314 4.99103 12.0579 5.20399 12.0125 5.26256C11.9938 5.28385 11.9137 5.38767 11.8336 5.48882C11.7535 5.59264 11.6814 5.68048 11.6734 5.68847C11.6654 5.69646 11.4625 5.94668 11.2222 6.24748C10.9846 6.54828 10.7683 6.81714 10.7443 6.84642C10.7176 6.8757 10.6428 6.97153 10.5708 7.05938C10.5013 7.14722 10.3545 7.33356 10.2424 7.47198C10.1302 7.6104 9.9193 7.87394 9.77245 8.05762C9.62827 8.24129 9.4307 8.48619 9.33458 8.60332C9.24114 8.72044 9.02487 8.9893 8.854 9.20226C8.68579 9.41522 8.5256 9.6122 8.50157 9.64148C8.47754 9.67076 8.38943 9.7799 8.30933 9.88106C8.22924 9.98488 8.15181 10.0807 8.13579 10.0967C8.12244 10.1126 8.01297 10.2484 7.8955 10.4001C7.77802 10.5492 7.64719 10.7169 7.6018 10.7728C7.49768 10.8979 7.4336 10.9778 6.96102 11.5714C6.74209 11.8429 6.53384 12.1011 6.49646 12.1464C6.45908 12.1916 6.3683 12.3061 6.29354 12.3993C6.22146 12.4924 6.14403 12.5883 6.12801 12.6096C6.10932 12.6309 6.01053 12.756 5.9064 12.8891C5.80228 13.0195 5.68213 13.1712 5.64208 13.2218C5.44718 13.4641 5.08407 13.9166 5.01198 14.0071C4.96926 14.0657 4.89717 14.1535 4.85179 14.2067C4.80907 14.2626 4.73698 14.3505 4.69159 14.4064C4.64887 14.4596 4.57678 14.5501 4.53139 14.606C4.48868 14.6593 4.41659 14.7498 4.37387 14.803C4.33115 14.8563 4.28576 14.8962 4.27241 14.8935C4.26173 14.8882 4.25105 11.9947 4.25105 8.23863C4.25105 2.2359 4.24838 1.58106 4.20833 1.48523C4.13091 1.29091 4.17897 1.29623 2.47823 1.28825C1.64788 1.28558 0.935012 1.29091 0.894963 1.29889Z" fill="#FF4350"/>
<path d="M26.4434 1.3122C26.171 1.34414 26.0616 1.37875 25.8239 1.49587C25.4849 1.66624 25.306 1.84725 24.6572 2.67513C24.6305 2.70973 24.5664 2.78959 24.5157 2.85348C24.465 2.9147 24.3742 3.02917 24.3154 3.10636C24.2567 3.18356 24.1953 3.25809 24.1819 3.27673C24.1659 3.2927 24.0885 3.38853 24.0084 3.49235C23.9283 3.5935 23.8562 3.68401 23.8482 3.69199C23.8322 3.70797 23.6613 3.92092 22.847 4.94312C22.5239 5.34507 22.2543 5.68048 22.2462 5.68847C22.2382 5.69645 22.1662 5.7843 22.0861 5.88811C22.006 5.98927 21.9205 6.09841 21.8938 6.12769C21.8698 6.15697 21.5814 6.51634 21.2557 6.92628C20.9273 7.33622 20.6523 7.67695 20.6443 7.68494C20.6363 7.69292 20.5642 7.78077 20.4841 7.88459C20.404 7.98574 20.3186 8.09488 20.2919 8.12416C20.2678 8.15344 19.9795 8.51281 19.6511 8.92275C19.3254 9.33269 19.037 9.69206 19.0103 9.72134C18.9542 9.79055 17.1574 12.0346 17.0533 12.1703C16.9705 12.2768 16.8263 12.4525 16.7516 12.543C16.7249 12.5723 16.6207 12.7027 16.5193 12.8358C16.3671 13.0328 16.012 13.4747 15.5768 14.0177C15.3685 14.2733 15.3151 14.3425 15.1176 14.5927C15.0375 14.6965 14.9654 14.7844 14.9574 14.7924C14.9467 14.8004 14.8159 14.9601 14.6663 15.1517C14.386 15.5058 14.2819 15.6336 14.143 15.8039C14.1003 15.8572 14.0282 15.9477 13.9828 16.0036C13.9401 16.0621 13.868 16.15 13.8227 16.2032C13.7799 16.2591 13.7105 16.3416 13.6705 16.3922C13.545 16.5546 13.0083 17.2227 12.8535 17.4117C12.752 17.5369 12.7493 17.5422 12.5544 17.7871C12.4743 17.8909 12.4023 17.9787 12.3942 17.9867C12.3862 17.9947 12.1833 18.2449 11.943 18.5457C11.7054 18.8465 11.4891 19.1154 11.4651 19.1447C11.4384 19.174 11.3637 19.2698 11.2916 19.3576C11.2221 19.4455 11.0032 19.7197 10.8056 19.9672C10.4132 20.4597 10.3891 20.5156 10.5119 20.6354L10.576 20.7019H12.5624C14.4875 20.7019 14.5542 20.6993 14.7064 20.6487C14.92 20.5742 15.0428 20.4837 15.2057 20.2787C15.2804 20.1829 15.3498 20.0977 15.3579 20.0897C15.3659 20.0817 15.4299 20.0045 15.4994 19.9167C15.6302 19.7516 16.586 18.5537 17.2722 17.6939C17.4911 17.4224 17.694 17.1722 17.7287 17.1349C17.7608 17.0976 17.7875 17.0604 17.7875 17.0497C17.7875 17.0391 17.8088 17.0098 17.8355 16.9832C17.8622 16.9566 17.9797 16.8155 18.0945 16.6691C18.212 16.5227 18.3135 16.3975 18.3215 16.3896C18.3402 16.3736 18.7807 15.8172 18.8821 15.6841C18.9596 15.5803 19.5817 14.811 19.603 14.7924C19.611 14.7844 19.6591 14.7258 19.7098 14.6593C19.7606 14.5927 19.838 14.4969 19.8834 14.4437C19.9261 14.3904 20.0222 14.2706 20.097 14.1775C20.1691 14.0843 20.2518 13.9831 20.2785 13.9539C20.3373 13.89 20.2892 13.8447 20.7377 14.4091C20.8979 14.6114 21.0368 14.7844 21.0448 14.7924C21.0528 14.8004 21.1195 14.8829 21.1916 14.9761C21.2664 15.0692 21.3572 15.1837 21.3945 15.2289C21.4319 15.2742 21.6402 15.5324 21.8564 15.8039C22.0727 16.0754 22.2703 16.3203 22.2943 16.3496C22.321 16.3789 22.3958 16.4747 22.4652 16.5626C22.5373 16.6504 22.7295 16.89 22.8924 17.0976C23.0579 17.3026 23.2234 17.5102 23.2608 17.5582C23.2982 17.6061 23.3409 17.6593 23.3543 17.6753C23.3703 17.6939 23.429 17.7658 23.4878 17.8403C23.5465 17.9122 23.6132 17.9974 23.6373 18.0267C23.664 18.0559 23.8108 18.2423 23.9683 18.4393C24.1259 18.6363 24.2887 18.8412 24.3288 18.8918C24.3688 18.9424 24.5264 19.1394 24.6785 19.331C24.8307 19.52 24.9616 19.6824 24.9696 19.6904C24.9776 19.6984 25.0497 19.7862 25.1298 19.89C25.6184 20.5103 25.6637 20.5529 25.9441 20.646C26.0963 20.6993 26.1764 20.7019 27.6341 20.7019C29.2842 20.7019 29.2948 20.7019 29.3856 20.5635C29.4257 20.5049 29.4283 19.6185 29.4283 10.9964C29.4283 1.79934 29.4283 1.49321 29.3803 1.42933C29.2815 1.29623 29.2761 1.29623 27.9332 1.28824C27.1536 1.28558 26.5875 1.29357 26.4434 1.3122ZM25.8239 10.9858C25.8239 14.4064 25.8159 15.2715 25.7892 15.2715C25.7732 15.2715 25.7145 15.2183 25.6637 15.1517C25.613 15.0852 25.5036 14.9494 25.4235 14.8483C25.3434 14.7498 25.2419 14.622 25.1965 14.5661C25.0123 14.3319 24.748 14.0071 24.7293 13.9938C24.7186 13.9858 24.6999 13.9618 24.6866 13.9379C24.6732 13.9139 24.6251 13.8474 24.5771 13.7915C24.4863 13.6823 24.4249 13.6051 23.7254 12.7294C23.4931 12.4365 23.2822 12.173 23.2581 12.1437C23.2341 12.1144 23.0552 11.8935 22.863 11.6513C22.6708 11.409 22.4785 11.1668 22.4331 11.1135C22.3504 11.0124 22.3317 10.9485 22.3797 10.9192C22.3958 10.9112 22.5533 10.7196 22.7295 10.4986C22.9057 10.275 23.0873 10.0514 23.1273 10.0008C23.17 9.95027 23.3783 9.68673 23.5919 9.41521C23.8082 9.14369 24.0645 8.8216 24.1633 8.69915C24.3955 8.41165 24.4409 8.35575 24.7506 7.96711C24.8628 7.82868 24.8708 7.81804 25.0497 7.59177C25.1298 7.48795 25.2018 7.40011 25.2099 7.39212C25.2339 7.36816 25.6264 6.8757 25.6904 6.78519C25.7252 6.73994 25.7705 6.70001 25.7892 6.70001C25.8186 6.70001 25.8239 7.46666 25.8239 10.9858Z" fill="#FF4350"/>
<path d="M34.1779 1.30155C34.1031 1.31486 34.0337 1.34946 33.9803 1.4027L33.9002 1.48256L33.8922 10.9458C33.8869 21.3674 33.8735 20.5396 34.0524 20.6487C34.1405 20.7019 34.1752 20.7019 38.602 20.7019C43.0127 20.7019 43.0661 20.7019 43.2209 20.6487C43.3064 20.6194 43.4238 20.5609 43.4799 20.5236C43.5653 20.465 43.9925 19.9646 44.2729 19.5972C44.401 19.4322 44.4998 19.3044 44.5132 19.2911C44.5212 19.2831 44.5933 19.1926 44.6734 19.0914C44.7535 18.9876 44.8255 18.8998 44.8336 18.8918C44.8416 18.8838 44.9137 18.7933 44.9937 18.6922C45.0738 18.5883 45.1459 18.5005 45.1539 18.4925C45.162 18.4845 45.234 18.394 45.3141 18.2929C45.3942 18.189 45.4663 18.1012 45.4743 18.0932C45.4823 18.0852 45.5491 18.0054 45.6212 17.9122C45.6959 17.819 45.7867 17.7046 45.8268 17.6593C45.9095 17.5635 45.9256 17.4197 45.8588 17.3346C45.8188 17.2813 45.784 17.2813 41.6697 17.2733L37.518 17.268L37.5126 9.37794L37.5046 1.48522L37.4272 1.40536C37.3845 1.36011 37.3124 1.31752 37.267 1.30953C37.1388 1.28558 34.3061 1.28025 34.1779 1.30155Z" fill="#FF4350"/>
<path d="M70.1934 1.3042C70.1454 1.31485 70.0733 1.36276 70.0333 1.41068L69.9585 1.4932V10.9991C69.9612 20.0631 69.9612 20.5049 70.0066 20.5582C70.1294 20.7046 70.0947 20.7019 71.7687 20.7019H73.3146L73.4054 20.6407C73.4534 20.6088 73.5095 20.5502 73.5282 20.5156C73.5549 20.4624 73.5629 18.8252 73.5629 12.6042C73.5629 7.92184 73.5736 4.7541 73.5869 4.74612C73.6296 4.71684 81.9598 4.72749 81.9678 4.7541C81.9758 4.7754 81.7355 5.08951 81.4712 5.40895C81.4445 5.43823 81.3591 5.54737 81.279 5.64853C81.1989 5.74968 81.1134 5.85882 81.0867 5.8881C81.0627 5.91738 80.8464 6.18624 80.6088 6.48704C80.3685 6.78785 80.1656 7.03807 80.1576 7.04606C80.1496 7.05404 80.0828 7.13656 80.0107 7.22707C79.936 7.32024 79.8105 7.47996 79.7304 7.57845C79.6503 7.67694 79.5008 7.86594 79.3967 7.99372C79.2952 8.12415 79.2044 8.23595 79.1964 8.24394C79.1884 8.25193 79.0576 8.41164 78.9054 8.6033C78.5957 8.99195 78.4969 9.1144 78.3821 9.25549C78.3394 9.30873 78.2673 9.39923 78.2219 9.4578C78.0884 9.62816 77.7013 10.1126 77.6078 10.2271C77.5571 10.2857 77.3195 10.5838 77.0738 10.8926C76.8282 11.1987 76.6093 11.4756 76.5852 11.5048C76.2969 11.8456 76.2221 12.008 76.2835 12.1624C76.3076 12.2236 76.5452 12.543 76.7454 12.7826C76.7801 12.8278 77.4209 13.6238 77.6692 13.9379C77.7093 13.9858 77.9976 14.3452 78.31 14.7365C78.6251 15.1251 78.9134 15.4845 78.9508 15.5351C78.9908 15.5856 79.0603 15.6708 79.103 15.7241C79.2178 15.8651 79.3166 15.9876 79.6263 16.3762C79.7785 16.5652 79.9093 16.7276 79.9173 16.7356C79.9253 16.7436 79.9974 16.8314 80.0775 16.9353C80.2777 17.1881 80.3498 17.2813 80.5367 17.5102C80.5768 17.5608 80.8678 17.9228 81.1828 18.3195C81.5006 18.7134 81.8343 19.1314 81.9251 19.2458C82.1387 19.5094 82.2615 19.6664 82.3015 19.717C82.5231 20.0018 82.8676 20.4118 82.929 20.4677C82.9744 20.5076 83.0491 20.5582 83.0945 20.5821C83.3268 20.7019 83.3241 20.7019 85.4093 20.7019H87.3904L87.4438 20.6327C87.5559 20.4916 87.5159 20.4091 87.0887 19.89C87.0273 19.8182 86.9712 19.7463 86.9606 19.7303C86.9499 19.717 86.9018 19.6558 86.8511 19.5972C86.803 19.5387 86.7389 19.4588 86.7096 19.4215C86.6695 19.3656 86.1863 18.7614 85.7217 18.1864C85.687 18.1411 85.5722 17.9974 85.4681 17.8669C85.3666 17.7338 85.2037 17.5315 85.1076 17.4144C85.0142 17.2973 84.8753 17.1243 84.8006 17.0284C84.7258 16.9326 84.6377 16.8261 84.6057 16.7888C84.5763 16.7516 84.4829 16.6371 84.4028 16.536C84.3227 16.4321 84.2506 16.3443 84.2426 16.3363C84.2266 16.3203 84.0049 16.0435 83.4015 15.2848C83.1693 14.992 82.9717 14.7471 82.961 14.7391C82.953 14.7311 82.8836 14.6433 82.8035 14.5421C82.7261 14.441 82.6406 14.3345 82.6139 14.3026C82.2909 13.9166 80.8251 12.0692 80.8251 12.0479C80.8251 12.0213 80.9292 11.8749 81.0307 11.7577C81.1001 11.6752 81.2763 11.4569 81.6661 10.9698C81.8877 10.6929 82.0853 10.4427 82.112 10.4134C82.152 10.3655 82.2775 10.2085 82.4938 9.93163C82.5392 9.87572 82.6112 9.78788 82.654 9.73464C82.6994 9.67874 82.7714 9.59089 82.8142 9.53499C82.8596 9.47643 82.9343 9.38326 82.9824 9.3247C83.1185 9.15966 83.1159 9.15966 83.4122 8.78964C83.5617 8.59798 83.7219 8.401 83.7647 8.35042C83.8367 8.25991 83.9275 8.15077 84.0957 7.93781C84.1411 7.88457 84.2132 7.79407 84.2559 7.73817C84.3013 7.68493 84.3707 7.59442 84.4161 7.53852C84.5016 7.42938 84.9421 6.88101 85.0142 6.79317C85.0382 6.76389 85.1236 6.65475 85.2037 6.55359C85.2838 6.44978 85.3666 6.35128 85.3853 6.32999C85.4547 6.25811 85.5428 6.10106 85.5855 5.97062C85.6256 5.85083 85.6309 5.62457 85.6309 3.68932C85.6309 2.10279 85.6229 1.51982 85.5989 1.46924C85.5829 1.43197 85.5295 1.37873 85.4841 1.34945C85.3986 1.29621 85.3132 1.29621 77.8374 1.28823C73.6804 1.28557 70.2388 1.29355 70.1934 1.3042Z" fill="#FF4350"/>
<path d="M90.8707 1.29886C90.7532 1.32282 90.6785 1.37074 90.6358 1.45592C90.601 1.52513 90.5957 2.60589 90.5957 10.9911C90.5957 18.5031 90.6037 20.4623 90.6304 20.5156C90.6491 20.5502 90.7052 20.6087 90.7532 20.6407L90.844 20.7019H92.3792C93.8316 20.7019 93.9224 20.6993 94.0906 20.6487C94.2989 20.5875 94.4537 20.4677 94.6326 20.2361C94.702 20.1482 94.7875 20.0391 94.8222 19.9965C94.9183 19.8794 96.822 17.5022 96.8834 17.4224C96.9127 17.3851 97.0809 17.1748 97.2572 16.9592C97.4307 16.7409 97.6897 16.4188 97.8312 16.2431C97.97 16.0674 98.0902 15.9184 98.0982 15.9104C98.1062 15.9024 98.1783 15.8119 98.2584 15.7107C98.3385 15.6069 98.4106 15.5191 98.4186 15.5111C98.4266 15.5031 98.5174 15.3913 98.6188 15.2635C98.9499 14.8456 99.0674 14.6992 99.329 14.3771C99.4678 14.2041 99.6067 14.0257 99.6334 13.9858C99.6601 13.9459 99.6948 13.9139 99.7135 13.9192C99.7322 13.9246 99.9057 14.1242 100.098 14.3664C100.29 14.6087 100.464 14.8243 100.482 14.8456C100.498 14.8696 100.563 14.9467 100.621 15.0186C100.677 15.0932 100.733 15.157 100.741 15.165C100.76 15.181 100.984 15.4632 101.088 15.6016C101.126 15.6522 101.438 16.0435 101.783 16.4721C102.13 16.9033 102.485 17.3452 102.57 17.4543C102.658 17.5635 102.749 17.6779 102.773 17.7072C102.821 17.7631 103.433 18.5298 103.644 18.7986C103.713 18.8865 103.777 18.9637 103.785 18.9716C103.793 18.9796 103.865 19.0675 103.945 19.1713C104.025 19.2724 104.097 19.3629 104.105 19.3709C104.114 19.3789 104.186 19.4668 104.266 19.5706C104.346 19.6717 104.418 19.7622 104.426 19.7702C104.434 19.7782 104.522 19.8874 104.621 20.0125C104.979 20.473 105.104 20.5768 105.416 20.6726C105.481 20.6939 106.127 20.7019 107.467 20.7019C109.624 20.7019 109.56 20.7072 109.584 20.5422C109.592 20.4969 109.582 20.4331 109.565 20.3985C109.539 20.3505 109.232 19.9566 109.023 19.7037C108.997 19.6744 108.911 19.5653 108.831 19.4641C108.751 19.3603 108.679 19.2724 108.671 19.2645C108.663 19.2565 108.572 19.1447 108.471 19.0142C108.367 18.8865 108.217 18.6975 108.137 18.599C108.057 18.5005 107.931 18.3408 107.857 18.2502C107.785 18.1571 107.702 18.0559 107.678 18.0266C107.654 17.9974 107.51 17.8163 107.36 17.6273C107.208 17.4357 107.077 17.276 107.069 17.268C107.061 17.26 106.989 17.1722 106.909 17.0683C106.714 16.8234 106.711 16.8181 106.61 16.693C106.479 16.5306 106.38 16.4108 106.079 16.0302C105.926 15.8385 105.796 15.6788 105.788 15.6708C105.78 15.6628 105.707 15.575 105.627 15.4712C105.432 15.2263 105.43 15.2209 105.328 15.0958C105.187 14.9228 105.099 14.811 104.637 14.2333C104.399 13.9325 104.196 13.6823 104.186 13.6743C104.178 13.6663 104.105 13.5758 104.025 13.4747C103.945 13.3709 103.868 13.275 103.852 13.2591C103.839 13.2404 103.777 13.1659 103.718 13.0887C103.66 13.0115 103.574 12.905 103.529 12.8518C103.483 12.7985 103.334 12.6122 103.198 12.4365C103.059 12.2608 102.885 12.0425 102.811 11.9547C102.739 11.8642 102.629 11.7284 102.57 11.6539C102.512 11.5767 102.439 11.4862 102.41 11.4516C102.381 11.4196 102.277 11.2919 102.18 11.1694C102.084 11.047 101.884 10.7967 101.74 10.6157C101.596 10.4347 101.422 10.2164 101.355 10.1339C101.289 10.0514 101.198 9.93427 101.15 9.87837C101.105 9.82247 100.939 9.61217 100.781 9.41519C100.624 9.2182 100.477 9.03187 100.453 9.00258C100.426 8.9733 100.341 8.86416 100.261 8.76301C100.181 8.65919 100.109 8.57135 100.101 8.56336C100.093 8.55538 99.9618 8.39299 99.8096 8.204C99.6601 8.01233 99.5159 7.83398 99.4919 7.8047C99.4678 7.77542 99.3797 7.66628 99.2996 7.56512C99.2195 7.46131 99.1475 7.37346 99.1394 7.36548C99.1314 7.35749 99.0594 7.26698 98.9793 7.16583C98.8992 7.06201 98.8271 6.97417 98.8191 6.96618C98.811 6.9582 98.739 6.86769 98.6589 6.76654C98.5788 6.66272 98.5067 6.57487 98.4987 6.56689C98.4907 6.5589 98.2877 6.30868 98.0475 6.00788C97.8098 5.70707 97.5936 5.43822 97.5695 5.40893C97.5428 5.37965 97.4574 5.27051 97.3773 5.16936C97.2972 5.06554 97.2251 4.9777 97.2171 4.96971C97.2091 4.96172 96.9394 4.62632 96.6164 4.22436C95.6846 3.05576 95.6285 2.98655 95.6152 2.97324C95.6071 2.96525 95.5351 2.87474 95.455 2.77359C95.3749 2.66977 95.3028 2.58193 95.2948 2.57394C95.2868 2.56596 95.2147 2.47545 95.1346 2.3743C95.0545 2.27048 94.9824 2.18263 94.9744 2.17465C94.9637 2.16666 94.8943 2.07615 94.8142 1.975C94.4617 1.50916 94.3016 1.3734 94.0586 1.32282C93.9117 1.29354 91.0042 1.26958 90.8707 1.29886ZM94.4003 6.86503C94.4724 6.9582 94.5499 7.05403 94.5712 7.07798C94.5952 7.1046 94.6593 7.1818 94.7154 7.25101C94.7688 7.32022 95.188 7.84463 95.6445 8.41695C96.1011 8.98661 96.6564 9.68139 96.878 9.96089C97.0996 10.2377 97.2892 10.472 97.2972 10.48C97.3052 10.488 97.3773 10.5758 97.4574 10.6796C97.5375 10.7808 97.6256 10.8899 97.6523 10.9192C97.6763 10.9458 97.6924 10.9857 97.687 11.0044C97.679 11.0204 97.5268 11.2173 97.3453 11.4383C97.1637 11.6592 96.9928 11.8748 96.9635 11.9148C96.9127 11.9813 95.9996 13.1206 95.9035 13.2351C95.8795 13.2644 95.73 13.4507 95.5751 13.6477C95.4176 13.8447 95.2547 14.0497 95.2147 14.1002C95.1719 14.1508 95.0278 14.3318 94.8943 14.4995C94.7581 14.6672 94.6193 14.8403 94.5819 14.8855C94.5472 14.9281 94.4671 15.0346 94.4057 15.1171C94.3443 15.1996 94.2722 15.2688 94.2482 15.2688C94.2028 15.2715 94.2001 15.0506 94.2001 11.0044C94.2001 8.65653 94.2081 6.72661 94.2188 6.71862C94.2508 6.68401 94.2722 6.69999 94.4003 6.86503Z" fill="#FF4350"/>
<path d="M107.072 1.30421C106.995 1.32019 106.944 1.35213 106.896 1.41335L106.829 1.5012L106.834 6.21021L106.842 10.9192L106.904 11.047C106.955 11.1508 107.131 11.3904 107.358 11.6646C107.382 11.6939 107.47 11.803 107.55 11.9041C107.63 12.008 107.702 12.0958 107.71 12.1038C107.726 12.1171 108.193 12.7027 108.338 12.8891C108.383 12.945 108.447 13.0275 108.487 13.0727C108.525 13.118 108.578 13.1872 108.607 13.2245C108.634 13.2644 108.802 13.472 108.978 13.6903C109.155 13.9086 109.312 14.1056 109.331 14.1269C109.347 14.1482 109.403 14.2147 109.451 14.276C109.499 14.3345 109.576 14.4277 109.619 14.4862C109.665 14.5422 109.737 14.63 109.779 14.6859C109.825 14.7391 109.897 14.8296 109.94 14.8855C110.086 15.0772 110.132 15.1118 110.233 15.1118C110.292 15.1118 110.348 15.0905 110.38 15.0586C110.433 15.0053 110.433 14.9707 110.433 11.055C110.433 8.88016 110.444 7.09664 110.458 7.08866C110.482 7.07269 110.548 7.14456 110.7 7.33888C110.749 7.40543 110.831 7.50659 110.882 7.56515C110.93 7.62371 110.978 7.68494 110.989 7.69825C111.013 7.73285 111.21 7.98042 111.248 8.02301C111.261 8.03898 111.301 8.08689 111.333 8.12949C111.4 8.21467 111.857 8.78965 111.923 8.86951C111.947 8.89879 112.035 9.00793 112.116 9.10909C112.196 9.2129 112.268 9.30075 112.276 9.30873C112.284 9.31672 112.356 9.40456 112.436 9.50838C112.516 9.60954 112.588 9.70004 112.596 9.70803C112.604 9.71601 112.676 9.80386 112.756 9.90768C112.957 10.1606 112.919 10.1153 113.224 10.4933C113.269 10.5492 113.341 10.6397 113.384 10.6956C113.429 10.7489 113.52 10.8633 113.589 10.9512C113.659 11.0363 113.878 11.3079 114.078 11.5581C114.276 11.8057 114.47 12.0506 114.513 12.1011C114.695 12.3274 114.753 12.3993 114.852 12.5297C114.911 12.6069 114.972 12.6814 114.986 12.7001C115.031 12.7507 115.971 13.9139 116.027 13.9911C116.056 14.0284 116.201 14.2094 116.347 14.3931C116.494 14.5741 116.662 14.7844 116.721 14.8589C116.78 14.9361 116.977 15.1837 117.162 15.41C117.346 15.6389 117.533 15.8705 117.576 15.9264C117.621 15.9823 117.693 16.0701 117.736 16.1234C117.781 16.1739 117.883 16.299 117.963 16.4029C118.043 16.504 118.115 16.5945 118.123 16.6025C118.131 16.6105 118.222 16.7223 118.323 16.8554C118.427 16.9858 118.529 17.1189 118.555 17.1482C118.641 17.2494 118.777 17.4197 118.857 17.5209C118.902 17.5795 118.977 17.6726 119.025 17.7312C119.073 17.7924 119.129 17.859 119.145 17.8803C119.164 17.9015 119.34 18.1225 119.538 18.3727C120.43 19.4907 120.777 19.922 120.838 19.9965C120.873 20.0391 120.958 20.1482 121.028 20.2361C121.207 20.4677 121.361 20.5875 121.57 20.6487C121.738 20.6993 121.829 20.7019 123.273 20.7019C124.934 20.7019 124.888 20.7046 125.009 20.5529L125.065 20.481V11.0071C125.065 2.58994 125.059 1.52516 125.025 1.45595C124.939 1.2909 124.979 1.29623 123.265 1.29623C122.349 1.29623 121.679 1.30688 121.639 1.32019C121.604 1.3335 121.548 1.38141 121.516 1.424L121.46 1.50386V8.20136C121.46 14.0337 121.455 14.8989 121.42 14.8989C121.402 14.8989 121.372 14.8829 121.361 14.8616C121.34 14.827 121.247 14.7072 121.1 14.5262C120.95 14.3425 120.857 14.2254 119.997 13.1446C119.957 13.0967 119.882 13.0035 119.832 12.9423C119.781 12.8811 119.703 12.7826 119.658 12.7294C119.615 12.6735 119.543 12.5829 119.498 12.5297C119.455 12.4738 119.37 12.3673 119.311 12.2901C119.218 12.1703 118.427 11.1801 118.206 10.9086C118.163 10.8553 117.928 10.5599 117.682 10.2537C117.437 9.94494 117.202 9.65213 117.162 9.60155C117.122 9.55097 116.964 9.35133 116.812 9.16233C116.66 8.97066 116.529 8.81095 116.521 8.80296C116.513 8.79498 116.441 8.70713 116.361 8.60331C116.281 8.50216 116.201 8.39834 116.182 8.37705C116.136 8.31848 115.963 8.10553 115.912 8.0443C115.885 8.01502 115.8 7.90588 115.72 7.80473C115.64 7.70357 115.552 7.59443 115.528 7.56515C115.477 7.50392 114.927 6.8198 114.74 6.58022C114.671 6.49238 114.607 6.41518 114.599 6.4072C114.591 6.39921 114.316 6.05848 113.987 5.64854C113.661 5.2386 113.373 4.87923 113.349 4.84995C113.322 4.82067 113.237 4.71153 113.157 4.61037C113.077 4.50656 113.005 4.41871 112.997 4.41072C112.989 4.40274 112.917 4.31489 112.836 4.21108C112.756 4.10992 112.671 4.00078 112.644 3.9715C112.58 3.89164 112.334 3.58552 112.182 3.39385C112.11 3.30069 112.043 3.22083 112.033 3.21284C112.025 3.20485 111.955 3.11435 111.878 3.0132C111.798 2.90938 111.726 2.82153 111.718 2.81355C111.707 2.80556 111.635 2.71506 111.555 2.6139C111.074 1.99632 110.695 1.53847 110.61 1.47192C110.554 1.43199 110.444 1.37609 110.367 1.34681C110.231 1.29889 110.116 1.29623 108.701 1.2909C107.865 1.28558 107.131 1.29357 107.072 1.30421Z" fill="#FF4350"/>
<path d="M134.129 1.29619C127.908 1.3095 127.855 1.3095 127.783 1.36274C127.743 1.39202 127.697 1.45058 127.681 1.49317C127.641 1.6103 127.644 4.41068 127.687 4.50917C127.732 4.61033 127.804 4.67155 127.919 4.7035C127.98 4.71947 128.933 4.73012 130.562 4.73012C131.964 4.73012 133.112 4.73278 133.117 4.7381C133.123 4.74343 133.133 8.2865 133.144 12.6122C133.163 20.3292 133.163 20.4783 133.213 20.5502C133.323 20.7046 133.28 20.7019 134.954 20.7019C136.695 20.7019 136.631 20.7099 136.735 20.4996L136.788 20.3878L136.77 12.559L136.751 4.73012L140.011 4.72479L143.268 4.71681L143.338 4.65292C143.415 4.57839 143.428 4.46392 143.367 4.39205C143.346 4.36543 143.169 4.14715 142.977 3.90491C142.785 3.66267 142.609 3.44173 142.585 3.41245C142.561 3.38317 142.473 3.27402 142.393 3.17287C142.312 3.07171 142.224 2.96257 142.2 2.93329C142.158 2.88005 141.658 2.25982 141.41 1.94837C141.341 1.86052 141.26 1.75937 141.231 1.7221C141.028 1.46655 140.825 1.34144 140.564 1.30417C140.476 1.29352 137.581 1.2882 134.129 1.29619Z" fill="#FF4350"/>
</svg>
